REM DIRINDEX 1\2,1\3
REM DIRNAME cjc140,folder01,folder02
TITLE ""
FILE "Track43.mp3" MP3
  TRACK 01 AUDIO
    TITLE "0:"
    INDEX 01 00:00:00
  TRACK 02 AUDIO
    TITLE "3:cjc140_156"
    INDEX 01 00:00:05
  TRACK 03 AUDIO
    TITLE "2:cjc140_157"
    INDEX 01 00:01:73
  TRACK 04 AUDIO
    TITLE "2:cjc140_158"
    INDEX 01 00:08:38
  TRACK 05 AUDIO
    TITLE "2:cjc140_159"
    INDEX 01 00:14:54
  TRACK 06 AUDIO
    TITLE "0:"
    INDEX 01 00:25:15
